<?xml version="1.0" encoding="UTF-8"?>
<!DOCTYPE svg PUBLIC "-//W3C//DTD SVG 1.1//EN" "http://www.w3.org/Graphics/SVG/1.1/DTD/svg11.dtd">
<!-- Creator: CorelDRAW X7 -->
<svg xmlns="http://www.w3.org/2000/svg" xml:space="preserve" width="45.1821mm" height="23.3008mm" version="1.1" style="shape-rendering:geometricPrecision; text-rendering:geometricPrecision; image-rendering:optimizeQuality; fill-rule:evenodd; clip-rule:evenodd"
viewBox="0 0 557487 287501"
 xmlns:xlink="http://www.w3.org/1999/xlink">
 <defs>
  <style type="text/css">
   <![CDATA[
    .fil0 {fill:none}
    .fil2 {fill:#FEFEFE;fill-rule:nonzero}
    .fil5 {fill:#6987B3;fill-rule:nonzero}
    .fil6 {fill:#4970A3;fill-rule:nonzero}
    .fil4 {fill:#004B84;fill-rule:nonzero}
    .fil3 {fill:white;fill-rule:nonzero}
    .fil1 {fill:#40506F;fill-rule:nonzero}
   ]]>
  </style>
 </defs>
 <g id="background">
  <metadata id="CorelCorpID_0Corel-Layer"/>
  <rect class="fil0" y="1" width="557487" height="286532"/>
 </g>
 <g id="Sign_x0020_up">
  <metadata id="CorelCorpID_1Corel-Layer"/>
  <g id="_2941185229632">
   <g>
    <g>
     <g>
      <g>
       <polygon class="fil1" points="320187,91561 328,91561 328,26461 320187,26461 "/>
       <g>
        <path class="fil2" d="M72462 47788l0 34194 7454 0c11737,0 18707,-7274 18707,-16807 0,-9531 -6420,-17387 -20202,-17387l-5959 0zm7679 27215l0 0 0 -20560c7487,-418 10837,4864 10837,10880 0,5756 -3508,10150 -10837,9680z"/>
        <polygon class="fil2" points="176333,47788 168620,47788 168620,66773 147600,47202 147600,81982 155289,81982 155289,64155 176333,83376 "/>
        <polygon class="fil2" points="179615,54431 189002,54431 189002,81982 197263,81982 197263,54431 206549,54431 206549,47788 179615,47788 "/>
        <polygon class="fil2" points="209572,81982 209572,47788 229717,47788 229717,54284 217318,54284 217318,61569 228480,61569 228480,68143 217318,68143 217318,75429 229717,75429 229717,81982 "/>
        <polygon class="fil2" points="283306,47788 283306,61614 270085,61614 270085,47788 262373,47788 262373,81982 270085,81982 270085,68143 283306,68143 283306,81982 291005,81982 291005,47788 "/>
        <polygon class="fil3" points="94902,47788 112404,82924 116619,73999 103850,47788 "/>
        <polygon class="fil3" points="129750,46604 125510,55487 129120,64614 121127,64614 118440,70269 131323,70269 136189,81982 145127,81982 "/>
        <path class="fil3" d="M231382 64963c0,11207 8441,17436 18862,17436 4103,0 6385,-1167 8094,-2057l0 -8105c-1585,2101 -4745,3495 -7948,3495 -6228,0 -11185,-4213 -11185,-10982 0,-6713 5485,-10725 11185,-10725 3203,0 6363,1405 7948,3505l0 -7520c-1462,-1280 -4081,-2391 -8184,-2391 -10410,0 -18772,7394 -18772,17344z"/>
        <path class="fil3" d="M45800 68582l4924 -12086 4911 12086 -9835 0zm24797 13400l0 0 -19593 -42706 -19772 42706 9677 0 2788 -7136 14018 0 2821 7136 10061 0z"/>
       </g>
      </g>
     </g>
    </g>
   </g>
   <path class="fil4" d="M455008 104193l-99048 0 22374 -63472 99051 0 -22377 63472zm-90916 -5754l0 0 86838 0 18319 -51961 -86837 0 -18320 51961z"/>
   <path class="fil5" d="M530356 76957l-127385 0 27134 -76957 127382 0 -27131 76957zm-119254 -5757l0 0 115179 0 23074 -65445 -115177 0 -23076 65445z"/>
   <g>
    <g>
     <g>
      <g>
       <polygon class="fil4" points="320114,91541 328,91541 328,26461 320114,26461 "/>
       <g>
        <path class="fil2" d="M72448 47779l0 34184 7450 0c11734,0 18699,-7267 18699,-16800 0,-9528 -6416,-17384 -20195,-17384l-5954 0zm7672 27208l0 0 0 -20554c7487,-417 10836,4865 10836,10882 0,5750 -3507,10143 -10836,9672z"/>
        <polygon class="fil2" points="176290,47779 168582,47779 168582,66761 147564,47195 147564,81963 155254,81963 155254,64143 176290,83364 "/>
        <polygon class="fil2" points="179572,54421 188957,54421 188957,81963 197216,81963 197216,54421 206499,54421 206499,47779 179572,47779 "/>
        <polygon class="fil2" points="209523,81963 209523,47779 229663,47779 229663,54275 217267,54275 217267,61558 228426,61558 228426,68134 217267,68134 217267,75414 229663,75414 229663,81963 "/>
        <polygon class="fil2" points="283239,47779 283239,61602 270019,61602 270019,47779 262309,47779 262309,81963 270019,81963 270019,68134 283239,68134 283239,81963 290934,81963 290934,47779 "/>
        <polygon class="fil3" points="94879,47779 112377,82912 116590,73988 103824,47779 "/>
        <polygon class="fil3" points="129718,46601 125482,55478 129087,64605 121098,64605 118413,70256 131292,70256 136158,81963 145090,81963 "/>
        <path class="fil3" d="M231328 64953c0,11202 8437,17431 18857,17431 4100,0 6383,-1171 8090,-2057l0 -8106c-1584,2102 -4744,3495 -7947,3495 -6224,0 -11183,-4210 -11183,-10979 0,-6708 5487,-10721 11183,-10721 3203,0 6363,1406 7947,3508l0 -7520c-1461,-1280 -4080,-2394 -8179,-2394 -10408,0 -18768,7397 -18768,17343z"/>
        <path class="fil3" d="M45788 68573l4921 -12083 4912 12083 -9833 0zm24792 13390l0 0 -19589 -42690 -19766 42690 9675 0 2787 -7129 14014 0 2820 7129 10059 0z"/>
       </g>
      </g>
     </g>
    </g>
   </g>
   <g>
    <polygon class="fil4" points="3818,124215 25183,124215 33066,188815 33322,188815 42730,124215 62569,124215 72743,188815 72997,188815 80626,124215 101228,124215 85460,215010 61807,215010 52522,150539 52269,150539 43495,215010 19842,215010 "/>
    <polygon class="fil4" points="104533,124215 125896,124215 125896,215010 104533,215010 "/>
    <path class="fil4" d="M152727 187290l0 3178c0,6867 1908,12080 9285,12080 7500,0 9663,-5596 9663,-10808 0,-19584 -39039,-8648 -39039,-42600 0,-14497 7756,-26705 29756,-26705 21364,0 28993,10809 28993,24797l0 2162 -20601 0c0,-4323 -508,-7502 -1780,-9537 -1272,-2162 -3307,-3180 -6485,-3180 -5342,0 -8521,3180 -8521,9793 0,18947 39040,9409 39040,41456 0,20597 -11445,28865 -31026,28865 -15516,0 -29886,-4705 -29886,-23651l0 -5850 20601 0z"/>
    <polygon class="fil4" points="198886,124215 251405,124215 251405,141511 220249,141511 220249,159696 249496,159696 249496,176988 220249,176988 220249,197716 252803,197716 252803,215010 198886,215010 "/>
    <polygon class="fil4" points="255727,169615 294131,169615 294131,186908 255727,186908 "/>
    <path class="fil4" d="M300617 124215l33061 0c22510,0 26834,16278 26834,27595 0,16277 -7757,27722 -29122,27722l-9410 0 0 35478 -21363 0 0 -90795zm21363 39550l0 0 5850 0c8521,0 10555,-5342 10555,-11447 0,-6993 -2289,-12335 -10937,-12335l-5468 0 0 23782z"/>
    <path class="fil4" d="M360893 167325c128,-9411 2926,-15134 7758,-18441 4832,-3304 10683,-4450 19202,-4450 16912,0 24416,5851 24416,20346l0 35353c0,5213 0,11827 2416,14877l-19839 0c-763,-2414 -1017,-5212 -1144,-7886l-253 0c-2798,6107 -9284,9667 -16151,9667 -11573,0 -18311,-6105 -18311,-20983 0,-8010 3306,-14751 8393,-17548 5085,-2797 12716,-4069 18439,-5594 6230,-1655 7375,-2670 7375,-7886 0,-4195 -1908,-6866 -6487,-6866 -5722,0 -7373,3434 -7502,9411l-18312 0zm23907 35223l0 0c4324,0 8267,-2541 8267,-9408 0,-5723 127,-9283 127,-12083 -6487,3436 -9284,3563 -11192,5088 -2161,1653 -3178,3816 -3178,7630 0,5470 2161,8773 5976,8773z"/>
    <path class="fil4" d="M420025 167325c127,-9411 2926,-15134 7758,-18441 4831,-3304 10681,-4450 19202,-4450 16912,0 24415,5851 24415,20346l0 35353c0,5213 0,11827 2417,14877l-19841 0c-762,-2414 -1015,-5212 -1142,-7886l-254 0c-2798,6107 -9284,9667 -16150,9667 -11573,0 -18312,-6105 -18312,-20983 0,-8010 3305,-14751 8392,-17548 5086,-2797 12717,-4069 18441,-5594 6228,-1655 7374,-2670 7374,-7886 0,-4195 -1908,-6866 -6486,-6866 -5721,0 -7375,3434 -7503,9411l-18311 0zm23906 35223l0 0c4325,0 8267,-2541 8267,-9408 0,-5723 127,-9283 127,-12083 -6486,3436 -9284,3563 -11191,5088 -2163,1653 -3178,3816 -3178,7630 0,5470 2162,8773 5975,8773z"/>
    <path class="fil4" d="M498103 187290l0 3178c0,6867 1909,12080 9282,12080 7505,0 9667,-5596 9667,-10808 0,-19584 -39040,-8648 -39040,-42600 0,-14497 7757,-26705 29757,-26705 21363,0 28992,10809 28992,24797l0 2162 -20600 0c0,-4323 -509,-7502 -1781,-9537 -1271,-2162 -3307,-3180 -6485,-3180 -5341,0 -8520,3180 -8520,9793 0,18947 39040,9409 39040,41456 0,20597 -11444,28865 -31030,28865 -15513,0 -29881,-4705 -29881,-23651l0 -5850 20599 0z"/>
   </g>
   <g>
    <polygon class="fil6" points="23160,276796 18353,276796 18353,238436 23160,238436 "/>
    <path class="fil6" d="M43385 277582c-3896,0 -6935,-1444 -9119,-4331 -2182,-2889 -3274,-6472 -3274,-10748 0,-4516 1228,-8127 3682,-10830 2454,-2700 5508,-4048 9162,-4048 3915,0 7001,1417 9260,4259 2256,2841 3387,6391 3387,10649 0,4427 -1218,8039 -3654,10845 -2435,2801 -5583,4204 -9444,4204zm338 -3651l0 0c2248,0 4131,-928 5649,-2785 1516,-1856 2276,-4738 2276,-8655 0,-3933 -797,-6787 -2388,-8559 -1593,-1769 -3458,-2654 -5593,-2654 -2192,0 -4049,895 -5564,2685 -1519,1789 -2276,4622 -2276,8498 0,4106 757,7042 2276,8812 1515,1772 3389,2658 5620,2658z"/>
    <polygon class="fil6" points="72208,276796 67402,276796 67402,242652 56415,242652 56415,238436 83225,238436 83225,242652 72208,242652 "/>
    <polygon class="fil6" points="129495,272580 129495,276796 104680,276796 104680,238436 128962,238436 128962,242652 109487,242652 109487,254845 124943,254845 124943,258755 109487,258755 109487,272580 "/>
    <path class="fil6" d="M158854 238436l0 38360 -3991 0 0 -4863c-1988,3766 -4980,5649 -8977,5649 -3320,0 -6051,-1393 -8189,-4177 -2138,-2785 -3207,-6308 -3207,-10563 0,-4351 1056,-7973 3174,-10872 2117,-2897 4929,-4345 8431,-4345 3410,0 6192,1557 8348,4665l0 -13854 4411 0zm-4411 20935l0 0c0,-2490 -760,-4488 -2276,-5986 -1519,-1499 -3290,-2246 -5314,-2246 -2190,0 -3994,973 -5408,2919 -1416,1952 -2122,4685 -2122,8208 0,3805 650,6697 1952,8686 1303,1984 3087,2979 5355,2979 2061,0 3877,-863 5451,-2587 1575,-1723 2362,-3748 2362,-6071l0 -5902z"/>
    <path class="fil6" d="M191729 243971l0 3513c-2025,0 -3377,234 -4062,702 -683,469 -1137,1313 -1362,2529 1816,2099 2726,4386 2726,6857 0,2586 -989,4805 -2966,6662 -1977,1855 -4632,2780 -7966,2780 -751,0 -1397,-54 -1940,-168 -1030,-204 -1677,-306 -1938,-306 -507,0 -1116,245 -1828,744 -712,496 -1067,1135 -1067,1922 0,1127 515,1856 1546,2193 1030,339 3456,552 7277,649 3242,92 5635,312 7181,656 1547,349 2852,1118 3919,2307 1070,1189 1603,2646 1603,4370 0,5415 -4759,8121 -14276,8121 -4515,0 -7808,-679 -9879,-2040 -2070,-1361 -3105,-3173 -3105,-5441 0,-2760 1443,-4653 4327,-5686 -1854,-1215 -2781,-2741 -2781,-4576 0,-2193 1312,-3868 3935,-5027 -2455,-1989 -3682,-4487 -3682,-7502 0,-2808 1050,-5112 3148,-6908 2097,-1799 4654,-2697 7672,-2697 2136,0 4074,403 5818,1208 281,-1856 930,-3138 1952,-3850 1021,-712 2572,-1070 4651,-1070 206,0 572,19 1097,58zm-18773 31671l0 0c-2062,901 -3092,2201 -3092,3908 0,1441 846,2561 2544,3357 1694,796 3855,1194 6478,1194 2434,0 4664,-341 6687,-1026 2023,-683 3036,-1837 3036,-3469 0,-883 -299,-1604 -900,-2165 -599,-561 -1419,-916 -2459,-1066 -1040,-151 -2851,-264 -5437,-339 -3090,-76 -5378,-204 -6857,-394zm5282 -11997l0 0c1874,0 3402,-577 4581,-1731 1181,-1152 1771,-2645 1771,-4480 0,-1874 -614,-3406 -1841,-4595 -1226,-1190 -2712,-1784 -4453,-1784 -1668,0 -3149,556 -4441,1669 -1293,1118 -1939,2704 -1939,4764 0,1837 580,3322 1743,4457 1160,1131 2688,1700 4579,1700z"/>
    <path class="fil6" d="M216423 268335l4102 844c-750,2427 -2211,4433 -4385,6021 -2173,1589 -4729,2382 -7671,2382 -3879,0 -7017,-1364 -9416,-4093 -2398,-2727 -3595,-6306 -3595,-10731 0,-4520 1245,-8171 3736,-10958 2493,-2781 5622,-4175 9387,-4175 3708,0 6693,1283 8951,3850 2257,2566 3415,6405 3471,11521l-20628 0c0,4291 899,7186 2698,8685 1799,1498 3701,2250 5705,2250 3616,0 6164,-1865 7645,-5596zm-255 -8625l0 0c-37,-1591 -299,-3009 -787,-4247 -486,-1236 -1310,-2287 -2472,-3158 -1163,-871 -2557,-1310 -4187,-1310 -2191,0 -4052,786 -5577,2361 -1530,1573 -2385,3693 -2573,6354l15596 0z"/>
    <polygon class="fil6" points="248950,276796 244144,276796 244144,238436 248950,238436 "/>
    <path class="fil6" d="M281375 276796l-4131 0 0 -18238c0,-2626 -573,-4470 -1716,-5539 -1142,-1070 -2529,-1602 -4160,-1602 -2247,0 -4135,900 -5661,2701 -1528,1797 -2290,4168 -2290,7109l0 15569 -4414 0 0 -28384 4104 0 0 5225c2303,-4006 5291,-6012 8965,-6012 2116,0 3920,546 5410,1643 1490,1096 2511,2328 3063,3697 553,1367 830,3838 830,7418l0 16413z"/>
    <path class="fil6" d="M303932 273789l0 3483c-1556,208 -2904,310 -4047,310 -5490,0 -8234,-2868 -8234,-8610l0 -17105 -5031 0 0 -3455 5031 0 197 -7138 4103 -394 0 7532 6352 0 0 3455 -6352 0 0 17840c0,2926 1517,4391 4553,4391 1012,0 2153,-104 3428,-309z"/>
    <path class="fil6" d="M327390 268335l4102 844c-748,2427 -2210,4433 -4384,6021 -2173,1589 -4730,2382 -7671,2382 -3879,0 -7017,-1364 -9416,-4093 -2397,-2727 -3597,-6306 -3597,-10731 0,-4520 1245,-8171 3738,-10958 2491,-2781 5621,-4175 9387,-4175 3709,0 6693,1283 8951,3850 2256,2566 3414,6405 3470,11521l-20627 0c0,4291 899,7186 2698,8685 1799,1498 3699,2250 5704,2250 3617,0 6165,-1865 7645,-5596zm-254 -8625l0 0c-37,-1591 -300,-3009 -786,-4247 -486,-1236 -1311,-2287 -2474,-3158 -1162,-871 -2556,-1310 -4186,-1310 -2193,0 -4052,786 -5579,2361 -1528,1573 -2385,3693 -2572,6354l15597 0z"/>
    <polygon class="fil6" points="343880,276796 339466,276796 339466,238436 343880,238436 "/>
    <polygon class="fil6" points="357979,276796 353566,276796 353566,238436 357979,238436 "/>
    <path class="fil6" d="M372218 238436l0 4918 -4749 0 0 -4918 4749 0zm-140 9976l0 0 0 28384 -4413 0 0 -28384 4413 0z"/>
    <path class="fil6" d="M404923 243971l0 3513c-2024,0 -3377,234 -4061,702 -683,469 -1139,1313 -1363,2529 1817,2099 2727,4386 2727,6857 0,2586 -990,4805 -2967,6662 -1976,1855 -4632,2780 -7966,2780 -751,0 -1396,-54 -1940,-168 -1031,-204 -1677,-306 -1939,-306 -506,0 -1115,245 -1827,744 -712,496 -1067,1135 -1067,1922 0,1127 514,1856 1546,2193 1030,339 3457,552 7279,649 3241,92 5634,312 7180,656 1545,349 2852,1118 3919,2307 1070,1189 1603,2646 1603,4370 0,5415 -4759,8121 -14276,8121 -4515,0 -7809,-679 -9878,-2040 -2071,-1361 -3107,-3173 -3107,-5441 0,-2760 1443,-4653 4328,-5686 -1854,-1215 -2781,-2741 -2781,-4576 0,-2193 1310,-3868 3935,-5027 -2456,-1989 -3683,-4487 -3683,-7502 0,-2808 1050,-5112 3149,-6908 2096,-1799 4654,-2697 7671,-2697 2135,0 4075,403 5818,1208 281,-1856 931,-3138 1952,-3850 1022,-712 2572,-1070 4652,-1070 206,0 571,19 1096,58zm-18772 31671l0 0c-2062,901 -3092,2201 -3092,3908 0,1441 847,2561 2543,3357 1696,796 3855,1194 6477,1194 2436,0 4666,-341 6689,-1026 2023,-683 3036,-1837 3036,-3469 0,-883 -300,-1604 -900,-2165 -600,-561 -1420,-916 -2459,-1066 -1040,-151 -2853,-264 -5439,-339 -3090,-76 -5376,-204 -6855,-394zm5282 -11997l0 0c1874,0 3400,-577 4581,-1731 1180,-1152 1771,-2645 1771,-4480 0,-1874 -615,-3406 -1841,-4595 -1227,-1190 -2712,-1784 -4454,-1784 -1667,0 -3149,556 -4440,1669 -1293,1118 -1941,2704 -1941,4764 0,1837 581,3322 1744,4457 1161,1131 2687,1700 4580,1700z"/>
    <path class="fil6" d="M429619 268335l4102 844c-749,2427 -2210,4433 -4385,6021 -2173,1589 -4731,2382 -7671,2382 -3879,0 -7017,-1364 -9416,-4093 -2397,-2727 -3596,-6306 -3596,-10731 0,-4520 1245,-8171 3738,-10958 2490,-2781 5621,-4175 9386,-4175 3709,0 6693,1283 8951,3850 2257,2566 3414,6405 3471,11521l-20628 0c0,4291 899,7186 2698,8685 1799,1498 3700,2250 5705,2250 3616,0 6164,-1865 7645,-5596zm-255 -8625l0 0c-37,-1591 -299,-3009 -787,-4247 -486,-1236 -1310,-2287 -2472,-3158 -1163,-871 -2557,-1310 -4187,-1310 -2193,0 -4052,786 -5578,2361 -1529,1573 -2384,3693 -2573,6354l15597 0z"/>
    <path class="fil6" d="M464066 276796l-4131 0 0 -18238c0,-2626 -573,-4470 -1715,-5539 -1143,-1070 -2530,-1602 -4160,-1602 -2248,0 -4136,900 -5662,2701 -1528,1797 -2291,4168 -2291,7109l0 15569 -4413 0 0 -28384 4104 0 0 5225c2304,-4006 5292,-6012 8964,-6012 2118,0 3922,546 5411,1643 1489,1096 2511,2328 3063,3697 553,1367 830,3838 830,7418l0 16413z"/>
    <path class="fil6" d="M490531 266846l3989 702c-561,3139 -1808,5595 -3737,7370 -1930,1778 -4339,2664 -7222,2664 -3917,0 -6901,-1444 -8952,-4331 -2051,-2889 -3076,-6414 -3076,-10579 0,-4313 1081,-7898 3244,-10759 2165,-2858 5111,-4288 8838,-4288 3092,0 5570,922 7435,2770 1863,1843 3021,4227 3470,7150l-3989 760c-749,-4685 -3011,-7027 -6789,-7027 -2431,0 -4301,1035 -5610,3104 -1308,2073 -1962,4755 -1962,8051 0,3638 648,6461 1948,8476 1301,2012 3128,3022 5483,3022 3647,0 5956,-2364 6930,-7085z"/>
    <path class="fil6" d="M520171 268335l4102 844c-750,2427 -2211,4433 -4385,6021 -2173,1589 -4729,2382 -7672,2382 -3878,0 -7017,-1364 -9414,-4093 -2399,-2727 -3596,-6306 -3596,-10731 0,-4520 1244,-8171 3736,-10958 2493,-2781 5621,-4175 9388,-4175 3707,0 6692,1283 8950,3850 2257,2566 3415,6405 3471,11521l-20628 0c0,4291 900,7186 2699,8685 1799,1498 3700,2250 5704,2250 3615,0 6164,-1865 7645,-5596zm-254 -8625l0 0c-37,-1591 -300,-3009 -788,-4247 -486,-1236 -1310,-2287 -2472,-3158 -1163,-871 -2558,-1310 -4187,-1310 -2191,0 -4052,786 -5578,2361 -1529,1573 -2385,3693 -2573,6354l15598 0z"/>
   </g>
  </g>
 </g>
</svg>
